custom-analysis
version=1
nRows=4
nColumns=98
inDegrees=no

This file contains tibia displacement and acting force.

Units are S.I. units (seconds, meters, Newtons, ...)
Angles are in degrees.

endheader
time	APT	SIT	knee_angle	aACL_R_force	pACL_R_force	aPCL_R_force	pPCL_R_force	aMCL_R_force	mMCL_R_force	pMCL_R_force	aLCL_R_force	mLCL_R_force	pLCL_R_force	aPCL_L_force	pPCL_L_force	aMCL_L_force	aLCL_L_force	aACL_R_length	pACL_R_length	aPCL_R_length	pPCL_R_length	aMCL_R_length	mMCL_R_length	pMCL_R_length	aLCL_R_length	mLCL_R_length	pLCL_R_length	aPCL_L_length	pPCL_L_length	aMCL_L_length	aLCL_L_length	aACL_R_strain	pACL_R_strain	aPCL_R_strain	pPCL_R_strain	aMCL_R_strain	mMCL_R_strain	pMCL_R_strain	aLCL_R_strain	mLCL_R_strain	pLCL_R_strain	aPCL_L_strain	pPCL_L_strain	aMCL_L_strain	aLCL_L_strain	femur_lat_meniscii_r.femur_lat_r.force.X	femur_lat_meniscii_r.femur_lat_r.force.Y	femur_lat_meniscii_r.femur_lat_r.force.Z	femur_lat_meniscii_r.femur_lat_r.torque.X	femur_lat_meniscii_r.femur_lat_r.torque.Y	femur_lat_meniscii_r.femur_lat_r.torque.Z	femur_lat_meniscii_r.meniscus_lat_r.force.X	femur_lat_meniscii_r.meniscus_lat_r.force.Y	femur_lat_meniscii_r.meniscus_lat_r.force.Z	femur_lat_meniscii_r.meniscus_lat_r.torque.X	femur_lat_meniscii_r.meniscus_lat_r.torque.Y	femur_lat_meniscii_r.meniscus_lat_r.torque.Z	femur_med_meniscii_r.femur_med_r.force.X	femur_med_meniscii_r.femur_med_r.force.Y	femur_med_meniscii_r.femur_med_r.force.Z	femur_med_meniscii_r.femur_med_r.torque.X	femur_med_meniscii_r.femur_med_r.torque.Y	femur_med_meniscii_r.femur_med_r.torque.Z	femur_med_meniscii_r.meniscus_med_r.force.X	femur_med_meniscii_r.meniscus_med_r.force.Y	femur_med_meniscii_r.meniscus_med_r.force.Z	femur_med_meniscii_r.meniscus_med_r.torque.X	femur_med_meniscii_r.meniscus_med_r.torque.Y	femur_med_meniscii_r.meniscus_med_r.torque.Z	femur_med_tibia_r.tibia_upper_r.force.X	femur_med_tibia_r.tibia_upper_r.force.Y	femur_med_tibia_r.tibia_upper_r.force.Z	femur_med_tibia_r.tibia_upper_r.torque.X	femur_med_tibia_r.tibia_upper_r.torque.Y	femur_med_tibia_r.tibia_upper_r.torque.Z	femur_med_tibia_r.femur_med_r.force.X	femur_med_tibia_r.femur_med_r.force.Y	femur_med_tibia_r.femur_med_r.force.Z	femur_med_tibia_r.femur_med_r.torque.X	femur_med_tibia_r.femur_med_r.torque.Y	femur_med_tibia_r.femur_med_r.torque.Z	femur_lat_tibia_r.tibia_upper_r.force.X	femur_lat_tibia_r.tibia_upper_r.force.Y	femur_lat_tibia_r.tibia_upper_r.force.Z	femur_lat_tibia_r.tibia_upper_r.torque.X	femur_lat_tibia_r.tibia_upper_r.torque.Y	femur_lat_tibia_r.tibia_upper_r.torque.Z	femur_lat_tibia_r.femur_lat_r.force.X	femur_lat_tibia_r.femur_lat_r.force.Y	femur_lat_tibia_r.femur_lat_r.force.Z	femur_lat_tibia_r.femur_lat_r.torque.X	femur_lat_tibia_r.femur_lat_r.torque.Y	femur_lat_tibia_r.femur_lat_r.torque.Z	femur_lat_meniscii_force_r	femur_med_meniscii_force_r	femur_lat_tibia_force_r	femur_med_tibia_force_r
      0.20959827	      0.01351250	      0.02615252	     81.35759664	      0.89666641	      0.00000000	    964.37452341	    609.14888469	     23.93529274	      9.72376917	      0.00000000	      0.00000000	      0.00000000	      0.00000000	      0.00000000	      0.00000000	      0.00000001	      0.00000000	      0.03103947	      0.02443945	      0.03716623	      0.03395267	      0.06147580	      0.05992089	      0.05656950	      0.05014690	      0.04470845	      0.03970938	      0.01525851	      0.01651186	      0.06550154	      0.04489616	      0.00109574	     -0.02471197	      0.19523619	      0.13600427	      0.02413580	      0.00213042	     -0.03675422	     -0.10415489	     -0.20615132	     -0.24135780	      0.00000079	     -0.32847694	      0.00000060	     -0.00000086	    166.97008223	    101.35259111	      9.43347049	     -6.08170942	      3.88236896	     66.30413157	   -166.97008223	   -101.35259111	     -9.43347049	      2.62832593	     -4.57804379	      2.29418247	      0.04318327	      0.00100188	     -0.02700492	      0.01075141	     -0.00067088	      0.01716711	     -0.04318327	     -0.00100188	      0.02700492	     -0.00009861	      0.00128957	     -0.00010939	   -892.76872094	   -367.84992008	    316.49846553	     -8.28138048	     21.88127683	      2.26585425	    892.76872094	    367.84992008	   -316.49846553	    134.07048091	    -15.64871952	    359.79978740	   -298.73223422	   -133.25025569	    -81.55358448	      4.34037957	    -10.32610988	      0.97636898	    298.73223422	    133.25025569	     81.55358448	    -36.15235365	      7.32728855	    120.45122815	    195.55139082	      0.05094178	    337.11654594	   1016.13032209
      0.20960544	      0.01351225	      0.02615391	     81.36151220	      0.61882858	      0.00000000	    965.17707175	    611.25055388	     24.67478855	     10.64579198	      0.00000000	      0.00000000	      0.00000000	      0.00000000	      0.00000000	      0.00000000	      0.00000001	      0.00000000	      0.03103949	      0.02443966	      0.03716654	      0.03395291	      0.06147600	      0.05992098	      0.05656965	      0.05014652	      0.04470802	      0.03970901	      0.01525851	      0.01651186	      0.06550154	      0.04489616	      0.00109627	     -0.02470363	      0.19524609	      0.13601241	      0.02413909	      0.00213201	     -0.03675169	     -0.10416162	     -0.20615896	     -0.24136483	      0.00000079	     -0.32847694	      0.00000060	     -0.00000086	    163.67402911	    101.49888297	     10.29248984	     -6.43296641	      3.81480323	     64.96746156	   -163.67402911	   -101.49888297	    -10.29248984	      2.64119299	     -4.52513153	      2.33523904	      0.04211306	      0.00108750	     -0.02636513	      0.01049778	     -0.00065451	      0.01674067	     -0.04211306	     -0.00108750	      0.02636513	     -0.00009704	      0.00125867	     -0.00010264	   -891.39569358	   -369.55901259	    315.41430118	     -8.28459615	     21.82457678	      2.35208634	    891.39569358	    369.55901259	   -315.41430118	    133.65115582	    -15.61774759	    359.21998141	   -298.17759355	   -133.94461293	    -81.96042043	      4.36253564	    -10.32949819	      1.01329279	    298.17759355	    133.94461293	     81.96042043	    -36.33322355	      7.32099167	    120.21492903	    192.86561745	      0.04969721	    336.99932811	   1015.20752939
      0.20961260	      0.01351194	      0.02615526	     81.36541910	     -0.59509286	      0.00000000	    968.55540829	    620.43884653	     27.96776213	     14.74201173	      0.00000000	      0.00000000	      0.00000000	      0.00000000	      0.00000000	      0.00000000	      0.00000001	      0.00000000	      0.03103949	      0.02443986	      0.03716689	      0.03395321	      0.06147622	      0.05992111	      0.05656983	      0.05014618	      0.04470762	      0.03970869	      0.01525851	      0.01651186	      0.06550154	      0.04489616	      0.00109624	     -0.02469548	      0.19525761	      0.13602233	      0.02414280	      0.00213413	     -0.03674857	     -0.10416772	     -0.20616595	     -0.24137104	      0.00000079	     -0.32847694	      0.00000060	     -0.00000086	    149.09033149	    101.63606008	     13.88803938	     -7.89198339	      3.51323053	     59.06041530	   -149.09033149	   -101.63606008	    -13.88803938	      2.68255540	     -4.28269622	      2.49476789	      0.03746260	      0.00139601	     -0.02357488	      0.00939107	     -0.00058327	      0.01488830	     -0.03746260	     -0.00139601	      0.02357488	     -0.00008990	      0.00112402	     -0.00007589	   -885.21216529	   -376.84564138	    310.32416479	     -8.29442541	     21.56176314	      2.71551579	    885.21216529	    376.84564138	   -310.32416479	    131.67322953	    -15.47663644	    356.61702892	   -295.70420070	   -136.93469605	    -83.73073149	      4.45883434	    -10.34243918	      1.17063411	    295.70420070	    136.93469605	     83.73073149	    -37.11991726	      7.29233008	    119.16374017	    180.97152619	      0.04428510	    336.45641722	   1010.89777043
      0.20964323	      0.01351024	      0.02616081	     81.38205643	     -2.32413809	      0.00000000	    973.71692168	    633.99052808	     32.77669331	     20.71533657	      0.00000000	      0.00000000	      0.00000000	      0.00000000	      0.00000000	      0.00000000	      0.00000001	      0.00000000	      0.03103936	      0.02444070	      0.03716881	      0.03395488	      0.06147736	      0.05992189	      0.05657089	      0.05014499	      0.04470623	      0.03970763	      0.01525851	      0.01651186	      0.06550154	      0.04489616	      0.00109193	     -0.02466194	      0.19531923	      0.13607834	      0.02416183	      0.00214715	     -0.03673055	     -0.10418902	     -0.20619071	     -0.24139120	      0.00000079	     -0.32847694	      0.00000060	     -0.00000086	    127.74761161	    100.61075326	     18.13157758	     -9.58569815	      3.05904637	     50.43099732	   -127.74761161	   -100.61075326	    -18.13157758	      2.69994244	     -3.88749316	      2.68018389	      0.03022037	      0.00163957	     -0.01916663	      0.00764008	     -0.00047179	      0.01200558	     -0.03022037	     -0.00163957	      0.01916663	     -0.00007669	      0.00091208	     -0.00004259	   -874.51026145	   -386.40318361	    302.93679292	     -8.29580504	     21.16077804	      3.23336910	    874.51026145	    386.40318361	   -302.93679292	    128.78823561	    -15.24746992	    352.14369490	   -291.81177636	   -140.82135448	    -86.02356761	      4.58335010	    -10.34320155	      1.38756307	    291.81177636	    140.82135448	     86.02356761	    -38.13886371	      7.24079952	    117.51913626	    163.61763367	      0.03582344	    335.23845377	   1002.91889910
